<?xml version="1.0" encoding="utf-8" ?>
<svg baseProfile="full" height="1024" version="1.1" width="1024" xmlns="http://www.w3.org/2000/svg" xmlns:ev="http://www.w3.org/2001/xml-events" xmlns:xlink="http://www.w3.org/1999/xlink"><defs><linearGradient id="ringGrad" x1="0" x2="1" y1="0" y2="1"><stop offset="0" stop-color="#ff3b30" /><stop offset="1" stop-color="#b00020" /></linearGradient><linearGradient id="pGrad" x1="0" x2="1" y1="0" y2="1"><stop offset="0" stop-color="#ff3b30" /><stop offset="1" stop-color="#b00020" /></linearGradient></defs><rect fill="white" height="1024" rx="128" ry="128" width="1024" x="0" y="0" /><circle cx="512.0" cy="512.0" fill="none" opacity="0.92" r="504.0" stroke="url(#ringGrad)" stroke-linecap="round" stroke-width="6" /><circle cx="512.0" cy="512.0" fill="none" opacity="0.8200000000000001" r="486.0" stroke="url(#ringGrad)" stroke-linecap="round" stroke-width="6" /><circle cx="512.0" cy="512.0" fill="none" opacity="0.72" r="468.0" stroke="url(#ringGrad)" stroke-linecap="round" stroke-width="6" /><circle cx="512.0" cy="512.0" fill="none" opacity="0.62" r="450.0" stroke="url(#ringGrad)" stroke-linecap="round" stroke-width="6" /><circle cx="512.0" cy="512.0" fill="none" opacity="0.52" r="432.0" stroke="url(#ringGrad)" stroke-linecap="round" stroke-width="6" /><path d="M110 45c22 0 40 18 40 40 0 22-18 40-40 40H85v60h-20V45h45zm0 60c11 0 20-9 20-20s-9-20-20-20H85v40h25z" fill="url(#pGrad)" opacity="0.98" transform="translate(307.2,307.2) scale(2.048)" /></svg>